<?xml version="1.0" encoding="utf-8" ?>
<svg xmlns="http://www.w3.org/2000/svg" xmlns:xlink="http://www.w3.org/1999/xlink" width="512" height="512">
	<defs>
		<linearGradient id="gradient_0" gradientUnits="userSpaceOnUse" x1="445.99246" y1="481.71237" x2="66.588318" y2="31.430222">
			<stop offset="0" stop-color="#221C32"/>
			<stop offset="1" stop-color="#2E4F7D"/>
		</linearGradient>
	</defs>
	<path fill="url(#gradient_0)" d="M240.768 2.03627C255.18 2.53916 269.61 1.48418 284.024 2.57032C321.806 5.41742 350.836 12.3248 387.423 22.4594L452.589 41.8623C465.928 46.0084 465.611 45.0907 470.009 58.6837L485.197 106.758C494.38 138.139 501.821 169.907 506.231 202.316L509.583 231.182C510.183 239.162 509.972 247.256 509.978 255.254L509.626 280.912C508.922 292.203 507.437 303.54 505.79 314.73L500.683 344.75C493.981 375.739 485.401 406.332 475.671 436.504L467.632 461.356C466.159 465.945 465.217 467.493 460.525 468.804L368 494.741C346.2 500.139 323.903 504.342 301.621 507.118L271.54 509.857L237.28 509.81L186.016 503.538L155.095 497.15L58.125 470.01C53.9632 468.925 48.4694 468.484 46.0764 464.418L45.8951 464.104C44.0465 460.947 43.2213 457.2 42.1964 453.717L29.0167 412.378L20.6323 382.189C11.7017 349.153 4.6018 315.513 2.28421 281.312C1.71565 272.921 2.03522 264.354 2.03389 255.937C2.03193 243.637 1.68684 231.424 3.04419 219.19L4.43285 206.711C9.76992 164.073 21.8761 122.627 34.8629 81.7887L43.2486 57.0485C46.8635 47.2007 45.7464 46.4188 55.7545 43.1357L104.237 28.177L176.75 9.57815L222.517 2.95075C224.02 2.78389 225.476 2.4653 226.994 2.36321L240.768 2.03627Z"/>
	<path fill="#C5C6C6" d="M88.5686 259.276L91.691 259.489C93.9384 259.79 96.3055 259.667 98.5732 259.672L137.59 259.494C139.956 259.595 142.673 259.287 144.977 259.627L145.133 259.798L145.023 365.848L255.512 365.894L255.625 421.164C255.633 423.237 255.838 425.471 255.582 427.524C253.117 427.59 249.971 426.6 247.164 425.885L133.5 395.742C115.908 390.325 116.776 382.265 112.966 365.819L88.5686 259.276Z"/>
	<path fill="#9B9C9B" d="M367.083 259.632L424.428 259.67L400.81 364.25C393.563 394.09 395.45 391.804 363.304 400.145L295.927 417.978L256.026 427.524C255.838 425.471 255.633 423.237 255.625 421.164L255.58 366.011L255.707 365.968L367.435 365.919L367.26 259.963L367.083 259.632Z"/>
	<path fill="#C5C6C6" d="M255.59 86.9446C265.94 88.5234 275.862 91.586 285.83 93.8928L366.902 113.281C373.69 114.84 380.723 116.18 387.299 118.494C393.842 120.796 395.37 125.29 397.027 131.5L424.404 253.666C424.72 255.435 424.978 257.504 424.636 259.287L424.428 260.022L367.083 259.65L366.879 146.175C366.532 145.845 365.849 145.987 365.375 145.986L264.516 145.943L255.546 145.96L255.59 86.9446Z"/>
	<path fill="#EBEBEB" d="M88.5686 259.276C87.3526 255.45 88.9697 250.79 89.7196 247L114.95 130.519C116.637 123.811 117.065 119.419 124.462 117.016C133.644 114.033 143.43 112.31 152.825 110.046L238.249 90.2287C244.016 88.9118 249.924 87.4331 255.831 86.9446L255.582 146.067C247.189 145.98 145.589 145.568 144.703 146.181L144.75 146.562C145.303 151.316 144.995 156.386 144.996 161.181L144.998 259.492C142.673 259.287 139.956 259.595 137.59 259.494L98.5732 259.672C96.3055 259.667 93.9384 259.79 91.691 259.489L88.5686 259.276Z"/>
	<path fill="#7CCDF4" d="M144.977 259.492L144.996 161.181C144.995 156.386 145.303 151.316 144.75 146.562L144.703 146.181C145.589 145.568 247.189 145.98 255.546 145.968L264.516 145.96L255.538 146.103L255.507 259.483L148.633 259.609C147.556 259.592 146.04 259.071 145.133 259.751L144.977 259.492Z"/>
	<path fill="#00A9E2" d="M264.516 145.971L365.375 145.986C365.849 145.987 366.532 145.845 366.879 146.175L366.964 259.632L366.979 259.963L255.724 259.648L255.455 259.483L255.538 146.103L264.516 145.971Z"/>
	<path fill="#007BBA" d="M145.029 259.798C146.04 259.071 147.556 259.592 148.633 259.609L255.455 259.637L255.724 259.609L366.979 259.659L367.435 365.919L255.707 365.894L255.512 366.011L145.023 365.848L145.029 259.798Z"/>
</svg>
